<mxfile host="app.diagrams.net" modified="2022-01-24T18:40:38.134Z" agent="5.0 (Windows NT 10.0; Win64; x64) AppleWebKit/537.36 (KHTML, like Gecko) Chrome/96.0.4664.110 Safari/537.36 OPR/82.0.4227.50" etag="hKEkfn7Za08qpb-OI47f" version="16.4.2" type="github" pages="2">
  <diagram name="Page-1" id="0783ab3e-0a74-02c8-0abd-f7b4e66b4bec">
    <mxGraphModel dx="1381" dy="795" grid="1" gridSize="10" guides="1" tooltips="1" connect="1" arrows="1" fold="1" page="1" pageScale="1" pageWidth="1000" pageHeight="1000" background="none" math="0" shadow="0">
      <root>
        <mxCell id="0" />
        <mxCell id="1" parent="0" />
        <mxCell id="1c1d494c118603dd-1" value="&lt;pre class=&quot;tw-data-text tw-text-large tw-ta&quot; id=&quot;tw-target-text&quot; dir=&quot;ltr&quot; style=&quot;line-height: 36px ; border: none ; padding: 2px 0.14em 2px 0px ; position: relative ; margin-top: -2px ; margin-bottom: -2px ; resize: none ; font-family: inherit ; overflow: hidden ; width: 270px ; overflow-wrap: break-word ; color: rgb(32 , 33 , 36)&quot;&gt;&lt;span class=&quot;Y2IQFc&quot; lang=&quot;en&quot;&gt;&lt;font style=&quot;line-height: 2.97 ; font-size: 10px&quot;&gt;Frontend for the Employee Management Service&lt;/font&gt;&lt;/span&gt;&lt;/pre&gt;" style="swimlane;html=1;childLayout=stackLayout;startSize=20;rounded=0;shadow=0;comic=0;labelBackgroundColor=none;strokeWidth=1;fontFamily=Verdana;fontSize=12;align=center;" parent="1" vertex="1">
          <mxGeometry y="10" width="1000" height="990" as="geometry" />
        </mxCell>
        <mxCell id="1c1d494c118603dd-2" value="Add Employee Form" style="swimlane;html=1;startSize=20;" parent="1c1d494c118603dd-1" vertex="1">
          <mxGeometry y="20" width="250" height="970" as="geometry" />
        </mxCell>
        <mxCell id="nFdKf4g9UxfLpsZxto65-9" value="" style="rhombus;whiteSpace=wrap;html=1;fontSize=10;" parent="1c1d494c118603dd-2" vertex="1">
          <mxGeometry x="100" y="70" width="50" height="60" as="geometry" />
        </mxCell>
        <mxCell id="nFdKf4g9UxfLpsZxto65-16" value="" style="edgeStyle=orthogonalEdgeStyle;rounded=0;orthogonalLoop=1;jettySize=auto;html=1;fontSize=14;" parent="1c1d494c118603dd-2" source="nFdKf4g9UxfLpsZxto65-11" target="nFdKf4g9UxfLpsZxto65-15" edge="1">
          <mxGeometry relative="1" as="geometry" />
        </mxCell>
        <mxCell id="nFdKf4g9UxfLpsZxto65-11" value="&lt;font style=&quot;font-size: 14px&quot;&gt;Enter data of new Employee&lt;/font&gt;" style="rounded=0;whiteSpace=wrap;html=1;fontSize=10;" parent="1c1d494c118603dd-2" vertex="1">
          <mxGeometry x="65" y="190" width="120" height="60" as="geometry" />
        </mxCell>
        <mxCell id="nFdKf4g9UxfLpsZxto65-12" value="" style="endArrow=classic;html=1;rounded=0;fontSize=10;exitX=0.5;exitY=1;exitDx=0;exitDy=0;" parent="1c1d494c118603dd-2" source="nFdKf4g9UxfLpsZxto65-9" target="nFdKf4g9UxfLpsZxto65-11" edge="1">
          <mxGeometry width="50" height="50" relative="1" as="geometry">
            <mxPoint x="-500" y="470" as="sourcePoint" />
            <mxPoint x="-415" y="150" as="targetPoint" />
          </mxGeometry>
        </mxCell>
        <mxCell id="nFdKf4g9UxfLpsZxto65-10" style="edgeStyle=orthogonalEdgeStyle;rounded=0;orthogonalLoop=1;jettySize=auto;html=1;entryX=0.5;entryY=0;entryDx=0;entryDy=0;fontSize=14;" parent="1c1d494c118603dd-2" source="nFdKf4g9UxfLpsZxto65-11" edge="1">
          <mxGeometry relative="1" as="geometry">
            <mxPoint x="125" y="330" as="targetPoint" />
          </mxGeometry>
        </mxCell>
        <mxCell id="nFdKf4g9UxfLpsZxto65-19" style="edgeStyle=orthogonalEdgeStyle;rounded=0;orthogonalLoop=1;jettySize=auto;html=1;entryX=0.5;entryY=0;entryDx=0;entryDy=0;fontSize=14;" parent="1c1d494c118603dd-2" source="nFdKf4g9UxfLpsZxto65-15" target="nFdKf4g9UxfLpsZxto65-17" edge="1">
          <mxGeometry relative="1" as="geometry">
            <Array as="points">
              <mxPoint x="60" y="350" />
            </Array>
          </mxGeometry>
        </mxCell>
        <mxCell id="nFdKf4g9UxfLpsZxto65-20" style="edgeStyle=orthogonalEdgeStyle;rounded=0;orthogonalLoop=1;jettySize=auto;html=1;fontSize=14;" parent="1c1d494c118603dd-2" source="nFdKf4g9UxfLpsZxto65-15" target="nFdKf4g9UxfLpsZxto65-18" edge="1">
          <mxGeometry relative="1" as="geometry">
            <Array as="points">
              <mxPoint x="180" y="350" />
            </Array>
          </mxGeometry>
        </mxCell>
        <mxCell id="nFdKf4g9UxfLpsZxto65-15" value="" style="rhombus;whiteSpace=wrap;html=1;fontSize=10;" parent="1c1d494c118603dd-2" vertex="1">
          <mxGeometry x="100" y="320" width="50" height="60" as="geometry" />
        </mxCell>
        <mxCell id="nFdKf4g9UxfLpsZxto65-22" style="edgeStyle=orthogonalEdgeStyle;rounded=0;orthogonalLoop=1;jettySize=auto;html=1;entryX=0.5;entryY=0;entryDx=0;entryDy=0;fontSize=14;" parent="1c1d494c118603dd-2" source="nFdKf4g9UxfLpsZxto65-17" target="nFdKf4g9UxfLpsZxto65-21" edge="1">
          <mxGeometry relative="1" as="geometry" />
        </mxCell>
        <mxCell id="N9wqJzGVljrXSablNd9E-1" value="" style="edgeStyle=orthogonalEdgeStyle;rounded=0;orthogonalLoop=1;jettySize=auto;html=1;" edge="1" parent="1c1d494c118603dd-2" source="nFdKf4g9UxfLpsZxto65-17" target="nFdKf4g9UxfLpsZxto65-15">
          <mxGeometry relative="1" as="geometry" />
        </mxCell>
        <mxCell id="nFdKf4g9UxfLpsZxto65-17" value="click on cancel" style="rounded=0;whiteSpace=wrap;html=1;fontSize=14;" parent="1c1d494c118603dd-2" vertex="1">
          <mxGeometry x="30" y="430" width="80" height="60" as="geometry" />
        </mxCell>
        <mxCell id="nFdKf4g9UxfLpsZxto65-18" value="click on save" style="rounded=0;whiteSpace=wrap;html=1;fontSize=14;" parent="1c1d494c118603dd-2" vertex="1">
          <mxGeometry x="140" y="430" width="80" height="60" as="geometry" />
        </mxCell>
        <mxCell id="nFdKf4g9UxfLpsZxto65-21" value="send on&amp;nbsp; Employee Window" style="rounded=0;whiteSpace=wrap;html=1;fontSize=14;" parent="1c1d494c118603dd-2" vertex="1">
          <mxGeometry x="20" y="550" width="120" height="60" as="geometry" />
        </mxCell>
        <mxCell id="1c1d494c118603dd-3" value="Employee Service" style="swimlane;html=1;startSize=20;" parent="1c1d494c118603dd-1" vertex="1">
          <mxGeometry x="250" y="20" width="250" height="970" as="geometry" />
        </mxCell>
        <mxCell id="nFdKf4g9UxfLpsZxto65-27" style="edgeStyle=orthogonalEdgeStyle;rounded=0;orthogonalLoop=1;jettySize=auto;html=1;fontSize=14;" parent="1c1d494c118603dd-3" source="nFdKf4g9UxfLpsZxto65-25" target="nFdKf4g9UxfLpsZxto65-24" edge="1">
          <mxGeometry relative="1" as="geometry" />
        </mxCell>
        <mxCell id="nFdKf4g9UxfLpsZxto65-25" value="save Employee" style="rounded=0;whiteSpace=wrap;html=1;fontSize=14;" parent="1c1d494c118603dd-3" vertex="1">
          <mxGeometry x="65" y="310" width="120" height="60" as="geometry" />
        </mxCell>
        <mxCell id="f0sGQxMkt5-YRT2aDxf5-18" style="edgeStyle=orthogonalEdgeStyle;rounded=0;orthogonalLoop=1;jettySize=auto;html=1;entryX=0.5;entryY=0;entryDx=0;entryDy=0;" parent="1c1d494c118603dd-3" source="nFdKf4g9UxfLpsZxto65-24" target="f0sGQxMkt5-YRT2aDxf5-16" edge="1">
          <mxGeometry relative="1" as="geometry" />
        </mxCell>
        <mxCell id="nFdKf4g9UxfLpsZxto65-24" value="send on&amp;nbsp; Employee Window" style="rounded=0;whiteSpace=wrap;html=1;fontSize=14;" parent="1c1d494c118603dd-3" vertex="1">
          <mxGeometry x="65" y="410" width="120" height="60" as="geometry" />
        </mxCell>
        <mxCell id="f0sGQxMkt5-YRT2aDxf5-16" value="" style="ellipse;whiteSpace=wrap;html=1;aspect=fixed;fillColor=none;" parent="1c1d494c118603dd-3" vertex="1">
          <mxGeometry x="100" y="500" width="50" height="50" as="geometry" />
        </mxCell>
        <mxCell id="f0sGQxMkt5-YRT2aDxf5-17" value="" style="ellipse;whiteSpace=wrap;html=1;aspect=fixed;fillColor=#000000;" parent="1c1d494c118603dd-3" vertex="1">
          <mxGeometry x="112.5" y="512.5" width="25" height="25" as="geometry" />
        </mxCell>
        <mxCell id="1c1d494c118603dd-4" value="&amp;nbsp;Employee Form" style="swimlane;html=1;startSize=20;" parent="1c1d494c118603dd-1" vertex="1">
          <mxGeometry x="500" y="20" width="250" height="970" as="geometry" />
        </mxCell>
        <mxCell id="1c1d494c118603dd-48" style="edgeStyle=none;rounded=0;html=1;dashed=1;labelBackgroundColor=none;startArrow=none;startFill=0;startSize=5;endArrow=oval;endFill=0;endSize=5;jettySize=auto;orthogonalLoop=1;strokeWidth=1;fontFamily=Verdana;fontSize=12" parent="1c1d494c118603dd-4" edge="1">
          <mxGeometry relative="1" as="geometry">
            <mxPoint x="122.9545454545455" y="238" as="targetPoint" />
          </mxGeometry>
        </mxCell>
        <mxCell id="1c1d494c118603dd-50" style="edgeStyle=none;rounded=0;html=1;dashed=1;labelBackgroundColor=none;startArrow=none;startFill=0;startSize=5;endArrow=oval;endFill=0;endSize=5;jettySize=auto;orthogonalLoop=1;strokeWidth=1;fontFamily=Verdana;fontSize=12" parent="1c1d494c118603dd-4" edge="1">
          <mxGeometry relative="1" as="geometry">
            <mxPoint x="139.23076923076906" y="360" as="targetPoint" />
          </mxGeometry>
        </mxCell>
        <mxCell id="nFdKf4g9UxfLpsZxto65-4" value="" style="rhombus;whiteSpace=wrap;html=1;fontSize=10;" parent="1c1d494c118603dd-4" vertex="1">
          <mxGeometry x="100" y="70" width="50" height="60" as="geometry" />
        </mxCell>
        <mxCell id="nFdKf4g9UxfLpsZxto65-8" style="edgeStyle=orthogonalEdgeStyle;rounded=0;orthogonalLoop=1;jettySize=auto;html=1;entryX=0.5;entryY=0;entryDx=0;entryDy=0;fontSize=14;" parent="1c1d494c118603dd-4" source="nFdKf4g9UxfLpsZxto65-6" target="nFdKf4g9UxfLpsZxto65-7" edge="1">
          <mxGeometry relative="1" as="geometry" />
        </mxCell>
        <mxCell id="nFdKf4g9UxfLpsZxto65-6" value="&lt;font style=&quot;font-size: 14px&quot;&gt;click Add Employee Button&lt;/font&gt;" style="rounded=0;whiteSpace=wrap;html=1;fontSize=10;" parent="1c1d494c118603dd-4" vertex="1">
          <mxGeometry x="65" y="190" width="120" height="60" as="geometry" />
        </mxCell>
        <mxCell id="nFdKf4g9UxfLpsZxto65-5" value="" style="endArrow=classic;html=1;rounded=0;fontSize=10;exitX=0.5;exitY=1;exitDx=0;exitDy=0;" parent="1c1d494c118603dd-4" source="nFdKf4g9UxfLpsZxto65-4" target="nFdKf4g9UxfLpsZxto65-6" edge="1">
          <mxGeometry width="50" height="50" relative="1" as="geometry">
            <mxPoint x="40" y="510" as="sourcePoint" />
            <mxPoint x="125" y="190" as="targetPoint" />
          </mxGeometry>
        </mxCell>
        <mxCell id="nFdKf4g9UxfLpsZxto65-7" value="send on Add Employee Window" style="rounded=0;whiteSpace=wrap;html=1;fontSize=14;" parent="1c1d494c118603dd-4" vertex="1">
          <mxGeometry x="65" y="320" width="120" height="60" as="geometry" />
        </mxCell>
        <mxCell id="nFdKf4g9UxfLpsZxto65-14" style="edgeStyle=orthogonalEdgeStyle;rounded=0;orthogonalLoop=1;jettySize=auto;html=1;entryX=0.5;entryY=0;entryDx=0;entryDy=0;fontSize=14;" parent="1c1d494c118603dd-1" source="nFdKf4g9UxfLpsZxto65-7" target="nFdKf4g9UxfLpsZxto65-9" edge="1">
          <mxGeometry relative="1" as="geometry">
            <Array as="points">
              <mxPoint x="625" y="660" />
              <mxPoint x="230" y="660" />
              <mxPoint x="230" y="70" />
              <mxPoint x="125" y="70" />
            </Array>
          </mxGeometry>
        </mxCell>
        <mxCell id="nFdKf4g9UxfLpsZxto65-23" style="edgeStyle=orthogonalEdgeStyle;rounded=0;orthogonalLoop=1;jettySize=auto;html=1;entryX=1;entryY=0.5;entryDx=0;entryDy=0;fontSize=14;" parent="1c1d494c118603dd-1" source="nFdKf4g9UxfLpsZxto65-21" target="nFdKf4g9UxfLpsZxto65-4" edge="1">
          <mxGeometry relative="1" as="geometry">
            <Array as="points">
              <mxPoint x="80" y="680" />
              <mxPoint x="710" y="680" />
              <mxPoint x="710" y="120" />
            </Array>
          </mxGeometry>
        </mxCell>
        <mxCell id="nFdKf4g9UxfLpsZxto65-26" style="edgeStyle=orthogonalEdgeStyle;rounded=0;orthogonalLoop=1;jettySize=auto;html=1;entryX=0;entryY=0.5;entryDx=0;entryDy=0;fontSize=14;" parent="1c1d494c118603dd-1" source="nFdKf4g9UxfLpsZxto65-18" target="nFdKf4g9UxfLpsZxto65-25" edge="1">
          <mxGeometry relative="1" as="geometry" />
        </mxCell>
        <mxCell id="nFdKf4g9UxfLpsZxto65-28" style="edgeStyle=orthogonalEdgeStyle;rounded=0;orthogonalLoop=1;jettySize=auto;html=1;entryX=0;entryY=0.5;entryDx=0;entryDy=0;fontSize=14;" parent="1c1d494c118603dd-1" source="nFdKf4g9UxfLpsZxto65-24" target="nFdKf4g9UxfLpsZxto65-4" edge="1">
          <mxGeometry relative="1" as="geometry" />
        </mxCell>
        <mxCell id="f0sGQxMkt5-YRT2aDxf5-1" value="Login Form/Service" style="swimlane;html=1;startSize=20;" parent="1c1d494c118603dd-1" vertex="1">
          <mxGeometry x="750" y="20" width="250" height="970" as="geometry" />
        </mxCell>
        <mxCell id="f0sGQxMkt5-YRT2aDxf5-2" style="edgeStyle=none;rounded=0;html=1;dashed=1;labelBackgroundColor=none;startArrow=none;startFill=0;startSize=5;endArrow=oval;endFill=0;endSize=5;jettySize=auto;orthogonalLoop=1;strokeWidth=1;fontFamily=Verdana;fontSize=12" parent="f0sGQxMkt5-YRT2aDxf5-1" edge="1">
          <mxGeometry relative="1" as="geometry">
            <mxPoint x="122.9545454545455" y="238" as="targetPoint" />
          </mxGeometry>
        </mxCell>
        <mxCell id="f0sGQxMkt5-YRT2aDxf5-3" style="edgeStyle=none;rounded=0;html=1;dashed=1;labelBackgroundColor=none;startArrow=none;startFill=0;startSize=5;endArrow=oval;endFill=0;endSize=5;jettySize=auto;orthogonalLoop=1;strokeWidth=1;fontFamily=Verdana;fontSize=12" parent="f0sGQxMkt5-YRT2aDxf5-1" edge="1">
          <mxGeometry relative="1" as="geometry">
            <mxPoint x="139.23076923076906" y="360" as="targetPoint" />
          </mxGeometry>
        </mxCell>
        <mxCell id="f0sGQxMkt5-YRT2aDxf5-9" value="" style="ellipse;whiteSpace=wrap;html=1;aspect=fixed;fillColor=#000000;" parent="f0sGQxMkt5-YRT2aDxf5-1" vertex="1">
          <mxGeometry x="105" y="50" width="40" height="40" as="geometry" />
        </mxCell>
        <mxCell id="f0sGQxMkt5-YRT2aDxf5-15" style="edgeStyle=orthogonalEdgeStyle;rounded=0;orthogonalLoop=1;jettySize=auto;html=1;entryX=0.5;entryY=0;entryDx=0;entryDy=0;" parent="1" source="f0sGQxMkt5-YRT2aDxf5-13" target="nFdKf4g9UxfLpsZxto65-4" edge="1">
          <mxGeometry relative="1" as="geometry">
            <Array as="points">
              <mxPoint x="770" y="230" />
              <mxPoint x="770" y="80" />
              <mxPoint x="625" y="80" />
            </Array>
          </mxGeometry>
        </mxCell>
        <mxCell id="f0sGQxMkt5-YRT2aDxf5-13" value="Login and send on Employee" style="whiteSpace=wrap;html=1;fillColor=none;" parent="1" vertex="1">
          <mxGeometry x="855" y="200" width="120" height="60" as="geometry" />
        </mxCell>
        <mxCell id="f0sGQxMkt5-YRT2aDxf5-14" value="" style="edgeStyle=orthogonalEdgeStyle;rounded=0;orthogonalLoop=1;jettySize=auto;html=1;" parent="1" source="f0sGQxMkt5-YRT2aDxf5-9" target="f0sGQxMkt5-YRT2aDxf5-13" edge="1">
          <mxGeometry relative="1" as="geometry" />
        </mxCell>
      </root>
    </mxGraphModel>
  </diagram>
  <diagram id="73zamSfePNhDHKz6eoHx" name="Neue Qualifikation zuweisen">
    <mxGraphModel dx="1201" dy="691" grid="1" gridSize="10" guides="1" tooltips="1" connect="1" arrows="1" fold="1" page="1" pageScale="1" pageWidth="1200" pageHeight="1050" math="0" shadow="0">
      <root>
        <mxCell id="ZzKBu_bhMKAa4F417rku-0" />
        <mxCell id="ZzKBu_bhMKAa4F417rku-1" parent="ZzKBu_bhMKAa4F417rku-0" />
        <mxCell id="_WWlci8IYqeo6nB2At52-0" value="&lt;pre class=&quot;tw-data-text tw-text-large tw-ta&quot; id=&quot;tw-target-text&quot; dir=&quot;ltr&quot; style=&quot;line-height: 36px ; border: none ; padding: 2px 0.14em 2px 0px ; position: relative ; margin-top: -2px ; margin-bottom: -2px ; resize: none ; font-family: inherit ; overflow: hidden ; width: 270px ; overflow-wrap: break-word ; color: rgb(32 , 33 , 36)&quot;&gt;&lt;span class=&quot;Y2IQFc&quot; lang=&quot;en&quot;&gt;&lt;font style=&quot;line-height: 2.97 ; font-size: 10px&quot;&gt;Frontend for the Employee Management Service&lt;/font&gt;&lt;/span&gt;&lt;/pre&gt;" style="swimlane;html=1;childLayout=stackLayout;startSize=20;rounded=0;shadow=0;comic=0;labelBackgroundColor=none;strokeWidth=1;fontFamily=Verdana;fontSize=12;align=center;" parent="ZzKBu_bhMKAa4F417rku-1" vertex="1">
          <mxGeometry x="40" y="20" width="1000" height="990" as="geometry" />
        </mxCell>
        <mxCell id="_WWlci8IYqeo6nB2At52-21" value="User" style="swimlane;html=1;startSize=20;" parent="_WWlci8IYqeo6nB2At52-0" vertex="1">
          <mxGeometry y="20" width="250" height="970" as="geometry" />
        </mxCell>
        <mxCell id="_WWlci8IYqeo6nB2At52-22" style="edgeStyle=none;rounded=0;html=1;dashed=1;labelBackgroundColor=none;startArrow=none;startFill=0;startSize=5;endArrow=oval;endFill=0;endSize=5;jettySize=auto;orthogonalLoop=1;strokeWidth=1;fontFamily=Verdana;fontSize=12" parent="_WWlci8IYqeo6nB2At52-21" edge="1">
          <mxGeometry relative="1" as="geometry">
            <mxPoint x="122.9545454545455" y="238" as="targetPoint" />
          </mxGeometry>
        </mxCell>
        <mxCell id="_WWlci8IYqeo6nB2At52-23" style="edgeStyle=none;rounded=0;html=1;dashed=1;labelBackgroundColor=none;startArrow=none;startFill=0;startSize=5;endArrow=oval;endFill=0;endSize=5;jettySize=auto;orthogonalLoop=1;strokeWidth=1;fontFamily=Verdana;fontSize=12" parent="_WWlci8IYqeo6nB2At52-21" edge="1">
          <mxGeometry relative="1" as="geometry">
            <mxPoint x="139.23076923076906" y="360" as="targetPoint" />
          </mxGeometry>
        </mxCell>
        <mxCell id="1ZCvxc8rqXZogKr1J-pO-6" value="Press Qualification" style="rounded=0;whiteSpace=wrap;html=1;" vertex="1" parent="_WWlci8IYqeo6nB2At52-21">
          <mxGeometry x="65" y="370" width="120" height="60" as="geometry" />
        </mxCell>
        <mxCell id="d3RfOLZ9QW911Gl2ySvm-2" value="Press Employee" style="rounded=0;whiteSpace=wrap;html=1;" vertex="1" parent="_WWlci8IYqeo6nB2At52-21">
          <mxGeometry x="50" y="70" width="120" height="60" as="geometry" />
        </mxCell>
        <mxCell id="1ZCvxc8rqXZogKr1J-pO-1" value="Press Field to edit" style="rounded=0;whiteSpace=wrap;html=1;" vertex="1" parent="_WWlci8IYqeo6nB2At52-21">
          <mxGeometry x="80" y="200" width="120" height="60" as="geometry" />
        </mxCell>
        <mxCell id="1ZCvxc8rqXZogKr1J-pO-26" style="edgeStyle=orthogonalEdgeStyle;rounded=0;orthogonalLoop=1;jettySize=auto;html=1;entryX=0.416;entryY=0.012;entryDx=0;entryDy=0;entryPerimeter=0;" edge="1" parent="_WWlci8IYqeo6nB2At52-21" source="1ZCvxc8rqXZogKr1J-pO-13" target="1ZCvxc8rqXZogKr1J-pO-25">
          <mxGeometry relative="1" as="geometry" />
        </mxCell>
        <mxCell id="1ZCvxc8rqXZogKr1J-pO-13" value="Qualification&amp;nbsp;exists" style="rounded=0;whiteSpace=wrap;html=1;" vertex="1" parent="_WWlci8IYqeo6nB2At52-21">
          <mxGeometry x="10" y="650" width="120" height="60" as="geometry" />
        </mxCell>
        <mxCell id="1ZCvxc8rqXZogKr1J-pO-27" style="edgeStyle=orthogonalEdgeStyle;rounded=0;orthogonalLoop=1;jettySize=auto;html=1;entryX=0.5;entryY=0;entryDx=0;entryDy=0;" edge="1" parent="_WWlci8IYqeo6nB2At52-21" source="1ZCvxc8rqXZogKr1J-pO-25" target="3d83xBhNxhuwunIMN-i9-1">
          <mxGeometry relative="1" as="geometry">
            <mxPoint x="60" y="870" as="targetPoint" />
          </mxGeometry>
        </mxCell>
        <mxCell id="1ZCvxc8rqXZogKr1J-pO-25" value="Add Qualification&lt;br&gt;&lt;span style=&quot;color: rgba(0 , 0 , 0 , 0) ; font-family: monospace ; font-size: 0px&quot;&gt;%3CmxGraphModel%3E%3Croot%3E%3CmxCell%20id%3D%220%22%2F%3E%3CmxCell%20id%3D%221%22%20parent%3D%220%22%2F%3E%3CmxCell%20id%3D%222%22%20value%3D%22%22%20style%3D%22ellipse%3BwhiteSpace%3Dwrap%3Bhtml%3D1%3Baspect%3Dfixed%3B%22%20vertex%3D%221%22%20parent%3D%221%22%3E%3CmxGeometry%20x%3D%22620%22%20y%3D%2290%22%20width%3D%2250%22%20height%3D%2250%22%20as%3D%22geometry%22%2F%3E%3C%2FmxCell%3E%3C%2Froot%3E%3C%2FmxGraphModel%3E&lt;/span&gt;" style="rounded=0;whiteSpace=wrap;html=1;" vertex="1" parent="_WWlci8IYqeo6nB2At52-21">
          <mxGeometry x="10" y="770" width="120" height="60" as="geometry" />
        </mxCell>
        <mxCell id="3d83xBhNxhuwunIMN-i9-1" value="" style="ellipse;html=1;shape=endState;fillColor=#000000;strokeColor=#ff0000;" vertex="1" parent="_WWlci8IYqeo6nB2At52-21">
          <mxGeometry x="40" y="890" width="30" height="30" as="geometry" />
        </mxCell>
        <mxCell id="S5cnyyUYu-_05xisV3yX-1" value="Condition" style="rhombus;whiteSpace=wrap;html=1;fillColor=#ffffc0;strokeColor=#ff0000;" vertex="1" parent="_WWlci8IYqeo6nB2At52-21">
          <mxGeometry x="30" y="550" width="80" height="40" as="geometry" />
        </mxCell>
        <mxCell id="S5cnyyUYu-_05xisV3yX-3" value="yes" style="edgeStyle=orthogonalEdgeStyle;html=1;align=left;verticalAlign=top;endArrow=open;endSize=8;strokeColor=#ff0000;rounded=0;entryX=0.5;entryY=0;entryDx=0;entryDy=0;" edge="1" source="S5cnyyUYu-_05xisV3yX-1" parent="_WWlci8IYqeo6nB2At52-21" target="1ZCvxc8rqXZogKr1J-pO-13">
          <mxGeometry x="-1" relative="1" as="geometry">
            <mxPoint x="140" y="640" as="targetPoint" />
          </mxGeometry>
        </mxCell>
        <mxCell id="oVFJ_aE9fpoeYiAaY6Vg-0" value="Employee Service" style="swimlane;html=1;startSize=20;" vertex="1" parent="_WWlci8IYqeo6nB2At52-0">
          <mxGeometry x="250" y="20" width="250" height="970" as="geometry" />
        </mxCell>
        <mxCell id="d3RfOLZ9QW911Gl2ySvm-0" value="Employee View" style="rounded=0;whiteSpace=wrap;html=1;" vertex="1" parent="oVFJ_aE9fpoeYiAaY6Vg-0">
          <mxGeometry x="65" y="40" width="120" height="60" as="geometry" />
        </mxCell>
        <mxCell id="d3RfOLZ9QW911Gl2ySvm-4" value="Employee Detail" style="rounded=0;whiteSpace=wrap;html=1;" vertex="1" parent="oVFJ_aE9fpoeYiAaY6Vg-0">
          <mxGeometry x="60" y="140" width="120" height="60" as="geometry" />
        </mxCell>
        <mxCell id="1ZCvxc8rqXZogKr1J-pO-2" value="Edit Employee" style="rounded=0;whiteSpace=wrap;html=1;" vertex="1" parent="oVFJ_aE9fpoeYiAaY6Vg-0">
          <mxGeometry x="60" y="280" width="120" height="60" as="geometry" />
        </mxCell>
        <mxCell id="1ZCvxc8rqXZogKr1J-pO-11" value="Open Selectction qualification" style="rounded=0;whiteSpace=wrap;html=1;" vertex="1" parent="oVFJ_aE9fpoeYiAaY6Vg-0">
          <mxGeometry x="65" y="425" width="120" height="60" as="geometry" />
        </mxCell>
        <mxCell id="1ZCvxc8rqXZogKr1J-pO-14" value="&lt;span&gt;Qualification dont exists&lt;/span&gt;" style="rounded=0;whiteSpace=wrap;html=1;" vertex="1" parent="oVFJ_aE9fpoeYiAaY6Vg-0">
          <mxGeometry x="40" y="750" width="120" height="60" as="geometry" />
        </mxCell>
        <mxCell id="_WWlci8IYqeo6nB2At52-1" value="Login From / Service" style="swimlane;html=1;startSize=20;" parent="_WWlci8IYqeo6nB2At52-0" vertex="1">
          <mxGeometry x="500" y="20" width="250" height="970" as="geometry" />
        </mxCell>
        <mxCell id="3d83xBhNxhuwunIMN-i9-2" value="" style="ellipse;html=1;shape=startState;fillColor=#000000;strokeColor=#ff0000;" vertex="1" parent="_WWlci8IYqeo6nB2At52-1">
          <mxGeometry x="120" y="40" width="30" height="30" as="geometry" />
        </mxCell>
        <mxCell id="1ZCvxc8rqXZogKr1J-pO-18" style="edgeStyle=orthogonalEdgeStyle;rounded=0;orthogonalLoop=1;jettySize=auto;html=1;entryX=0;entryY=0.5;entryDx=0;entryDy=0;" edge="1" parent="_WWlci8IYqeo6nB2At52-0" source="d3RfOLZ9QW911Gl2ySvm-2" target="d3RfOLZ9QW911Gl2ySvm-4">
          <mxGeometry relative="1" as="geometry" />
        </mxCell>
        <mxCell id="1ZCvxc8rqXZogKr1J-pO-19" style="edgeStyle=orthogonalEdgeStyle;rounded=0;orthogonalLoop=1;jettySize=auto;html=1;exitX=0.25;exitY=1;exitDx=0;exitDy=0;entryX=1;entryY=0.5;entryDx=0;entryDy=0;" edge="1" parent="_WWlci8IYqeo6nB2At52-0" source="d3RfOLZ9QW911Gl2ySvm-4" target="1ZCvxc8rqXZogKr1J-pO-1">
          <mxGeometry relative="1" as="geometry" />
        </mxCell>
        <mxCell id="1ZCvxc8rqXZogKr1J-pO-20" style="edgeStyle=orthogonalEdgeStyle;rounded=0;orthogonalLoop=1;jettySize=auto;html=1;exitX=0.75;exitY=1;exitDx=0;exitDy=0;entryX=0;entryY=0.5;entryDx=0;entryDy=0;" edge="1" parent="_WWlci8IYqeo6nB2At52-0" source="1ZCvxc8rqXZogKr1J-pO-1" target="1ZCvxc8rqXZogKr1J-pO-2">
          <mxGeometry relative="1" as="geometry" />
        </mxCell>
        <mxCell id="1ZCvxc8rqXZogKr1J-pO-21" style="edgeStyle=orthogonalEdgeStyle;rounded=0;orthogonalLoop=1;jettySize=auto;html=1;exitX=0;exitY=1;exitDx=0;exitDy=0;entryX=1;entryY=0.25;entryDx=0;entryDy=0;" edge="1" parent="_WWlci8IYqeo6nB2At52-0" source="1ZCvxc8rqXZogKr1J-pO-2" target="1ZCvxc8rqXZogKr1J-pO-6">
          <mxGeometry relative="1" as="geometry" />
        </mxCell>
        <mxCell id="1ZCvxc8rqXZogKr1J-pO-22" style="edgeStyle=orthogonalEdgeStyle;rounded=0;orthogonalLoop=1;jettySize=auto;html=1;exitX=0.436;exitY=1.012;exitDx=0;exitDy=0;entryX=0;entryY=0.5;entryDx=0;entryDy=0;exitPerimeter=0;" edge="1" parent="_WWlci8IYqeo6nB2At52-0" source="1ZCvxc8rqXZogKr1J-pO-6" target="1ZCvxc8rqXZogKr1J-pO-11">
          <mxGeometry relative="1" as="geometry" />
        </mxCell>
        <mxCell id="1ZCvxc8rqXZogKr1J-pO-23" style="edgeStyle=orthogonalEdgeStyle;rounded=0;orthogonalLoop=1;jettySize=auto;html=1;exitX=0.25;exitY=1;exitDx=0;exitDy=0;entryX=0.5;entryY=0;entryDx=0;entryDy=0;" edge="1" parent="_WWlci8IYqeo6nB2At52-0" source="1ZCvxc8rqXZogKr1J-pO-11" target="S5cnyyUYu-_05xisV3yX-1">
          <mxGeometry relative="1" as="geometry">
            <mxPoint x="125" y="560" as="targetPoint" />
          </mxGeometry>
        </mxCell>
        <mxCell id="3d83xBhNxhuwunIMN-i9-3" value="" style="edgeStyle=orthogonalEdgeStyle;html=1;verticalAlign=bottom;endArrow=open;endSize=8;strokeColor=#ff0000;rounded=0;entryX=1;entryY=0.5;entryDx=0;entryDy=0;" edge="1" source="3d83xBhNxhuwunIMN-i9-2" parent="_WWlci8IYqeo6nB2At52-0" target="d3RfOLZ9QW911Gl2ySvm-0">
          <mxGeometry relative="1" as="geometry">
            <mxPoint x="635" y="150" as="targetPoint" />
          </mxGeometry>
        </mxCell>
        <mxCell id="S5cnyyUYu-_05xisV3yX-0" style="edgeStyle=orthogonalEdgeStyle;rounded=0;orthogonalLoop=1;jettySize=auto;html=1;entryX=0.5;entryY=0;entryDx=0;entryDy=0;" edge="1" parent="_WWlci8IYqeo6nB2At52-0" source="d3RfOLZ9QW911Gl2ySvm-0" target="d3RfOLZ9QW911Gl2ySvm-2">
          <mxGeometry relative="1" as="geometry">
            <mxPoint x="110" y="70" as="targetPoint" />
          </mxGeometry>
        </mxCell>
        <mxCell id="S5cnyyUYu-_05xisV3yX-2" value="no" style="edgeStyle=orthogonalEdgeStyle;html=1;align=left;verticalAlign=bottom;endArrow=open;endSize=8;strokeColor=#ff0000;rounded=0;entryX=0;entryY=0.5;entryDx=0;entryDy=0;" edge="1" source="S5cnyyUYu-_05xisV3yX-1" parent="_WWlci8IYqeo6nB2At52-0" target="1ZCvxc8rqXZogKr1J-pO-14">
          <mxGeometry x="-1" relative="1" as="geometry">
            <mxPoint x="280" y="580" as="targetPoint" />
          </mxGeometry>
        </mxCell>
      </root>
    </mxGraphModel>
  </diagram>
</mxfile>
